<svg version="1.1" id="Layer_1" xmlns="http://www.w3.org/2000/svg" xmlns:xlink="http://www.w3.org/1999/xlink" x="0px" y="0px" width="31.5px" height="31.5px" viewBox="-1.51 8.919 31.5 31.5" enable-background="new -1.51 8.919 31.5 31.5" xml:space="preserve">
	<circle fill="none" stroke="#E37070" stroke-width="1.5" stroke-miterlimit="10" cx="14.24" cy="24.669" r="15"/>
	<path fill="#E37070" d="M18.522,25.65c-0.296-0.295-0.786-0.295-1.082,0l-2.456,2.438v-7.92c0-0.412-0.323-0.745-0.737-0.745
		c-0.413,0-0.737,0.334-0.737,0.745v7.94l-2.473-2.464c-0.295-0.296-0.772-0.296-1.069,0c-0.295,0.294-0.294,0.771,0.001,1.065 l3.676,3.664c0.02,0.023,0.038,0.053,0.062,0.074c0.189,0.189,0.454,0.255,0.697,0.202c0.036-0.006,0.069-0.02,0.104-0.031 c0.007-0.002,0.014-0.003,0.021-0.005c0.122-0.047,0.228-0.126,0.31-0.226l3.686-3.673C18.818,26.423,18.818,25.945,18.522,25.65z"
	/>
</svg>