<svg version="1.1" xmlns="http://www.w3.org/2000/svg" xmlns:xlink="http://www.w3.org/1999/xlink" x="0px" y="0px" width="40px" height="40px" viewBox="0 0 40 40" enable-background="new 0 0 40 40" xml:space="preserve">
	<g enable-background="new">
		<circle fill-rule="evenodd" clip-rule="evenodd" fill="#FFFFFF" cx="19.994" cy="20.001" r="20.004"/>
	</g>
	<g enable-background="new">
		<path fill-rule="evenodd" clip-rule="evenodd" d="M25.705,21.311c-0.394-0.393-1.049-0.393-1.443,0l-3.276,3.249v-10.56
			c0-0.549-0.432-0.993-0.983-0.993c-0.551,0-0.983,0.445-0.983,0.993V24.59l-3.297-3.287c-0.394-0.393-1.032-0.393-1.426,0
			c-0.394,0.393-0.393,1.029,0.001,1.422l4.902,4.884c0.026,0.034,0.051,0.07,0.083,0.101c0.253,0.252,0.605,0.34,0.93,0.269
			c0.048-0.009,0.093-0.025,0.138-0.041c0.009-0.003,0.018-0.005,0.027-0.008c0.163-0.062,0.303-0.167,0.412-0.3l4.916-4.898
			C26.099,22.34,26.099,21.703,25.705,21.311z"/>
	</g>
</svg>
