<svg version="1.1" xmlns="http://www.w3.org/2000/svg" xmlns:xlink="http://www.w3.org/1999/xlink" x="0px" y="0px" width="40px" height="40px" viewBox="0 0 40 40" enable-background="new 0 0 40 40" xml:space="preserve">
	<g enable-background="new">
		<g>
			<g>
				<circle fill-rule="evenodd" clip-rule="evenodd" fill="#FFFFFF" cx="19.994" cy="20.001" r="20.004"/>
			</g>
		</g>
	</g>
	<g enable-background="new">
		<g>
			<g>
				<path fill-rule="evenodd" clip-rule="evenodd" d="M13,17h4v-4h-4V17z M13,22h4v-4h-4V22z M13,27h4v-4h-4V27z M18,17h4v-4h-4V17z
					 M18,22h4v-4h-4V22z M18,27h4v-4h-4V27z M23,13v4h4v-4H23z M23,22h4v-4h-4V22z M23,27h4v-4h-4V27z"/>
			</g>
		</g>
	</g>
</svg>
