<svg version="1.1" xmlns="http://www.w3.org/2000/svg" xmlns:xlink="http://www.w3.org/1999/xlink" x="0px" y="0px" width="40px" height="40px" viewBox="0 0 40 40" enable-background="new 0 0 40 40" xml:space="preserve">
	<g enable-background="new">
		<g>
			<g>
				<circle fill-rule="evenodd" clip-rule="evenodd" fill="#FFFFFF" cx="19.994" cy="20.001" r="20.004"/>
			</g>
		</g>
	</g>
	<g enable-background="new">
		<g>
			<g>
				<path fill-rule="evenodd" clip-rule="evenodd" d="M25.703,18.274l-4.902-4.884c-0.026-0.034-0.051-0.07-0.083-0.101
					c-0.253-0.252-0.605-0.34-0.93-0.269c-0.048,0.009-0.093,0.025-0.138,0.041c-0.009,0.003-0.018,0.005-0.027,0.008
					c-0.163,0.062-0.303,0.167-0.412,0.3l-4.916,4.898c-0.394,0.393-0.394,1.029,0,1.422c0.394,0.393,1.049,0.393,1.443,0
					l3.276-3.249v10.56c0,0.549,0.432,0.993,0.983,0.993s0.983-0.445,0.983-0.993V16.41l3.297,3.287c0.394,0.393,1.032,0.393,1.426,0
					C26.098,19.303,26.097,18.667,25.703,18.274z"/>
			</g>
		</g>
	</g>
</svg>
