<?xml version="1.0" encoding="utf-8"?>
<!-- Generator: Adobe Illustrator 16.0.0, SVG Export Plug-In . SVG Version: 6.00 Build 0)  -->
<!DOCTYPE svg PUBLIC "-//W3C//DTD SVG 1.1//EN" "http://www.w3.org/Graphics/SVG/1.1/DTD/svg11.dtd">
<svg version="1.1" id="Layer_1" xmlns="http://www.w3.org/2000/svg" xmlns:xlink="http://www.w3.org/1999/xlink" x="0px" y="0px"
	 width="24.593px" height="16.475px" viewBox="0 0 24.593 16.475" enable-background="new 0 0 24.593 16.475" xml:space="preserve">
<g>
	<g>
		<path d="M23.877,0H0.716C0.321,0,0,0.321,0,0.716v15.043c0,0.394,0.321,0.716,0.716,0.716h23.161c0.394,0,0.716-0.322,0.716-0.716
			V0.716C24.593,0.321,24.271,0,23.877,0z M23.16,0.477c0.132,0,0.24,0.107,0.24,0.239s-0.108,0.238-0.24,0.238
			s-0.238-0.107-0.238-0.238S23.028,0.477,23.16,0.477z M22.443,0.477c0.134,0,0.24,0.107,0.24,0.239s-0.106,0.238-0.24,0.238
			c-0.132,0-0.238-0.107-0.238-0.238S22.312,0.477,22.443,0.477z M0.477,0.477h13.131v0.477H0.477V0.477z M24.115,15.997H0.477
			V1.432h23.638V15.997z M23.877,0.954c-0.132,0-0.238-0.107-0.238-0.238s0.106-0.239,0.238-0.239c0.131,0,0.238,0.107,0.238,0.239
			S24.008,0.954,23.877,0.954z M12.272,8.33l0.78,2.041l1.666-4.34h-0.897l-0.769,2.041L12.29,6.031h-0.024l-0.762,2.041
			l-0.775-2.041H9.831l1.673,4.34L12.272,8.33z M7.052,8.33l0.781,2.041l1.666-4.34H8.602L7.833,8.071L7.07,6.031H7.046L6.284,8.071
			L5.509,6.031H4.611l1.673,4.34L7.052,8.33z M17.491,8.33l0.781,2.041l1.666-4.34h-0.897l-0.769,2.041L17.51,6.031h-0.024
			l-0.763,2.041l-0.773-2.041h-0.898l1.672,4.34L17.491,8.33z"/>
	</g>
</g>
</svg>
